<?xml version="1.0" encoding="UTF-8"?>
<svg width="200" height="200" viewBox="0 0 200 200" fill="none" xmlns="http://www.w3.org/2000/svg">
  <rect width="200" height="200" rx="40" fill="#007AFF"/>
  <path d="M100 50C72.3858 50 50 72.3858 50 100C50 127.614 72.3858 150 100 150C127.614 150 150 127.614 150 100C150 72.3858 127.614 50 100 50ZM100 140C77.9086 140 60 122.091 60 100C60 77.9086 77.9086 60 100 60C122.091 60 140 77.9086 140 100C140 122.091 122.091 140 100 140Z" fill="white"/>
  <path d="M100 70C83.4315 70 70 83.4315 70 100C70 116.569 83.4315 130 100 130C116.569 130 130 116.569 130 100C130 83.4315 116.569 70 100 70ZM100 120C88.9543 120 80 111.046 80 100C80 88.9543 88.9543 80 100 80C111.046 80 120 88.9543 120 100C120 111.046 111.046 120 100 120Z" fill="white"/>
  <circle cx="100" cy="100" r="10" fill="white"/>
</svg> 